<?xml version="1.0" standalone="no"?><!DOCTYPE svg PUBLIC "-//W3C//DTD SVG 1.1//EN" "http://www.w3.org/Graphics/SVG/1.1/DTD/svg11.dtd"><svg t="1635868168126" class="icon" viewBox="0 0 1024 1024" version="1.1" xmlns="http://www.w3.org/2000/svg" p-id="555" xmlns:xlink="http://www.w3.org/1999/xlink" width="200" height="200"><defs><style type="text/css"></style></defs><path d="M416.128859 957.268188c6.542604-27.606765 29.049987-34.864107 59.550067-36.314201l-41.399839-53.729074 54.471302-46.485477a296.300242 296.300242 0 0 0 315.172081 68.264376l-203.329289-184.45745-38.485906 42.128323-84.242899-84.971383L615.843221 523.009718c5.085638-5.085638 17.43549-5.085638 25.428188-6.542604 7.985826-1.443221 25.40757 0 37.757423 0a183.797691 183.797691 0 0 0 36.307329-7.257342h7.264215l40.671356 38.485906-63.914094 66.814282 180.100295 196.071946c147.407893-161.950067-149.600215-368.901154-149.600215-368.901154 139.12655-3.26443 260.329664 94.304215 286.843705 230.922308a347.733906 347.733906 0 0 1-47.928698 226.565155l45.756993 34.857235c-26.871409 29.771597-76.978685 83.521289-78.428778 83.521288-1.450094 0-27.599893-29.771597-41.392967-42.128322a26.197906 26.197906 0 0 0-20.34255-4.357154 402.287678 402.287678 0 0 1-355.101208-7.264215l-45.014765 53.742819c-6.549477 0-65.37106-31.228564-58.106846-60.271678z" p-id="556" fill="#d81e06"></path><path d="M345.685906 703.824752c13.078336 19.614067 52.299597 72.62153 62.464 87.864698a30.589423 30.589423 0 0 1 0 23.978094c-30.500081 63.178738-63.185611 125.622121-95.128913 188.079248 0 5.085638-10.899758 13.071463-15.971651 13.071463a1116.915973 1116.915973 0 0 1-217.871463-13.799946C10.913503 989.225235 3.663034 969.611168 3.663034 905.724564a472.758121 472.758121 0 0 1 108.928859-308.629477 262.11651 262.11651 0 0 1 204.064644-87.864698c77.679678 2.412242 195.343463-3.628671 208.414926 0 13.078336 3.635544 23.978094 7.257342 13.799946 16.707007L345.685906 703.824752z m-162.671678-477.843759a225.14255 225.14255 0 0 0 337.686336 194.972349 225.14255 225.14255 0 0 0 112.564402-194.972349C633.264966 101.671517 532.473128 0.879678 408.149906 0.879678 283.81294 0.872805 183.014228 101.664644 183.014228 225.987866z" p-id="557" fill="#d81e06"></path></svg>